# xmcd
#
# Track frame offsets:
#	150
#	4241
#	22063
#	31424
#	34358
#	50103
#	65982
#	84727
#	93542
#	107153
#	108041
#	121639
#	140526
#	151269
#	152184
#	166934
#	179026
#	195741
#	214192
#	227048
#	243445
#	258098
#	272114
#	283877
#	294862
#
# Disc length: 4712 seconds
# Revision: 0
# Processed by: cddbd v1.5.2PL0 Copyright (c) Steve Scherf et al.
# Submitted via: dBpowerAMP V12.0
#
DISCID=71126619
DTITLE=Allen Toussaint - Songbook
DYEAR=2013
DGENRE=R&B
TTITLE0=Introduction
TTITLE1=It's Raining
TTITLE2=Lipstick Traces
TTITLE3=Intro to Brickyard Blues
TTITLE4=Brickyard Blues
TTITLE5=With You In Mind
TTITLE6=Who's Gonna Help Brother Get Further
TTITLE7=Sweet Touch Of Love
TTITLE8=Holy Cow
TTITLE9=Intro to Get Out Of My Life, Woman
TTITLE10=Get Out Of My Life, Woman
TTITLE11=Freedom For The Stallion
TTITLE12=St. James Infirmary
TTITLE13=Intro to Shrimp Po-Boy, Dressed
TTITLE14=Shrimp Po-Boy, Dressed
TTITLE15=Soul Sister
TTITLE16=All These Things
TTITLE17=We Are America/Yes We Can
TTITLE18=The Optimism Blues
TTITLE19=Old Records
TTITLE20=Medley: Certain Girl/Mother-In-Law/Fortune Teller/Working In The Coal Mine
TTITLE21=It's A New Orleans Thing
TTITLE22=I Could Eat Crawfish Everyday
TTITLE23=There's No Place Like New York
TTITLE24=Southern Nights
EXTD=
EXTT0=
EXTT1=
EXTT2=
EXTT3=
EXTT4=
EXTT5=
EXTT6=
EXTT7=
EXTT8=
EXTT9=
EXTT10=
EXTT11=
EXTT12=
EXTT13=
EXTT14=
EXTT15=
EXTT16=
EXTT17=
EXTT18=
EXTT19=
EXTT20=
EXTT21=
EXTT22=
EXTT23=
EXTT24=
PLAYORDER=
